<?xml version="1.0" encoding="utf-8"?>
<!-- Generator: Adobe Illustrator 23.0.1, SVG Export Plug-In . SVG Version: 6.00 Build 0)  -->
<svg version="1.1" id="Layer_1" xmlns="http://www.w3.org/2000/svg" xmlns:xlink="http://www.w3.org/1999/xlink" x="0px" y="0px"
	 viewBox="0 0 300 300" style="enable-background:new 0 0 300 300;" xml:space="preserve">
<style type="text/css">
	.st0{fill-rule:evenodd;clip-rule:evenodd;fill:#896E96;}
	.st1{fill-rule:evenodd;clip-rule:evenodd;fill:#57B469;}
	.st2{fill-rule:evenodd;clip-rule:evenodd;fill:#32B24B;}
	.st3{fill-rule:evenodd;clip-rule:evenodd;fill:#B23D25;}
	.st4{fill-rule:evenodd;clip-rule:evenodd;fill:#FCD538;}
	.st5{fill-rule:evenodd;clip-rule:evenodd;fill:#231E20;}
	.st6{fill-rule:evenodd;clip-rule:evenodd;fill:#1A9565;}
	.st7{fill-rule:evenodd;clip-rule:evenodd;fill:#1C6F38;}
	.st8{fill-rule:evenodd;clip-rule:evenodd;fill:#6DB851;}
</style>
<path class="st0" d="M239.98,151.33c-0.86-9.78-8.5-18.35-7.93-29.86c0.23-4.67,2.08-10.56,6.84-6.84
	c2.77,2.17,4.17,7.17,4.24,11.94c0.07,0.83,0.07,1.61,0.12,2.37c0,1.14,0,2.28,0,3.42c0,0.97-0.02,1.89-0.09,2.94
	c-0.07,3.71-0.58,7.06-0.68,10.74c0,0-0.14,5.46-0.09,6.92c0.06,1.46-1.53,0.18-1.63,0.1C240.66,152.97,239.98,151.33,239.98,151.33
	z"/>
<path class="st1" d="M180.27,81.98c0.63-0.26,2.33-0.26,2.95,0C182.24,81.98,181.26,81.98,180.27,81.98z"/>
<path class="st1" d="M135.8,101.26c0.26,0.17,0.26,1.39,0,1.56C135.8,102.3,135.8,101.78,135.8,101.26z"/>
<path class="st2" d="M135.8,104.21c-0.1,1.45,0.21,3.32-0.16,4.51C135.75,107.27,135.44,105.41,135.8,104.21z"/>
<path class="st2" d="M135.65,109.97c0.36,1.61,0.05,3.89,0.16,5.75C135.44,114.11,135.75,111.83,135.65,109.97z"/>
<path class="st0" d="M249.09,151.63c-0.54-10.85,5.41-20.05,8.71-28.61c1.13-2.95,2.31-6.42,4.35-7.93c2.91-2.16,7.67-1.81,7,2.95
	c-0.45,3.18-3.05,5.88-4.66,8.55c-4.99,8.25-9.95,17.18-14.46,25.19C249.65,151.78,249.51,151.78,249.09,151.63z"/>
<path class="st1" d="M135.8,118.21c0.36,0.83,0.05,2.33,0.16,3.42c-0.05,0-0.1,0-0.16,0C135.8,120.49,135.8,119.35,135.8,118.21z"/>
<path class="st2" d="M135.8,121.63c0.05,0,0.1,0,0.16,0c0,0.52,0,1.04,0,1.55C135.6,122.97,135.9,122.1,135.8,121.63z"/>
<path class="st2" d="M136.58,131.27c0.26,0.63,0.26,2.33,0,2.95C136.58,133.24,136.58,132.25,136.58,131.27z"/>
<path class="st3" d="M250.09,151.8c3.35,0.9,5.71,2.8,8.09,4.66c0.87,0.76,1.41,1.32,2.02,2.02c3.01,3.37,5.25,7.5,5.44,13.68
	c0.07,0.98,0.06,1.93,0,2.95c-1.21,12.99-5.95,27.07-13.68,34.21c-4.52,4.17-13.75,9.42-22.55,5.75c-2.46-1.03-5.32-3.69-6.53-6.38
	c-0.93-2.75-1.58-5.78-1.55-9.49c0-1.3,0-2.59,0-3.89c0.55-13.08,0.13-27.78,2.33-39.65c0.53-0.15,0.4-0.11,0.93-0.31
	c4.42-2.06,9.67-3.29,15.39-4.04C239.98,151.33,246.16,150.73,250.09,151.8z M227.39,173.25c-0.44,6.53,1.34,15.86,6.22,15.86
	c4.02,0,6.59-6.49,7-12.6c0.47-7.08-1.64-16.38-6.84-15.55C229.88,161.59,227.72,168.28,227.39,173.25z M244.65,177.14
	c0.17,5.31,1.82,12.36,6.22,12.44c4.73,0.09,7.17-8.08,7.15-14.93c-0.01-5.18-1.88-14.38-7.31-13.06
	C246.41,162.64,244.44,170.56,244.65,177.14z M238.27,195.33c-0.98,2.77,0.59,6.25,4.04,5.44c2.26-0.53,3.22-4.13,1.87-6.69
	C241.89,192.79,239.08,193.05,238.27,195.33z"/>
<path class="st4" d="M233.76,160.97c5.2-0.83,7.32,8.47,6.84,15.55c-0.41,6.1-2.98,12.6-7,12.6c-4.88,0-6.66-9.33-6.22-15.86
	C227.72,168.28,229.88,161.59,233.76,160.97z M238.89,172.79c-0.05-3.47-1.68-8.58-4.66-8.55c-3.58,0.03-5.1,6.1-5.29,10.42
	c-0.17,4.13,1,10.92,4.82,10.88c3.38-0.03,4.97-5.74,5.13-9.64C238.93,175.15,238.94,173.74,238.89,172.79z"/>
<path class="st4" d="M250.71,161.59c5.43-1.32,7.29,7.89,7.31,13.06c0.02,6.84-2.42,15.01-7.15,14.93
	c-4.4-0.08-6.05-7.13-6.22-12.44C244.44,170.56,246.41,162.64,250.71,161.59z M246.36,176.83c-0.03,3.8,1.49,9.33,4.66,9.33
	c3.39,0,5.01-5.37,5.29-9.49c0.29-4.34-0.66-11.89-4.82-11.82c-3.49,0.06-5.16,6.49-5.13,10.42
	C246.36,175.66,246.32,176.37,246.36,176.83z"/>
<path class="st5" d="M244.18,194.09c1.35,2.55,0.39,6.16-1.87,6.69c-3.45,0.81-5.02-2.67-4.04-5.44
	C239.08,193.05,241.89,192.79,244.18,194.09z"/>
<path class="st3" d="M184.47,210.57c0.34-1.84,0.89-3.47,1.87-4.66c0.72,1.46,2,2.36,3.27,3.27c-1.4,3.33,3.24,3.32,3.27,5.91
	c0.01,0.81-0.87,1.86-1.71,2.02c-2.83,0.53-6.36-2.21-6.69-4.82C184.37,211.76,184.37,211.21,184.47,210.57z"/>
<path class="st0" d="M52.92,215.24c0.88,0,1.76,0,2.64,0C55.04,215.5,53.45,215.5,52.92,215.24z"/>
<path class="st3" d="M211.99,217.88c0.21-0.77,0.32-1.82,0.46-2.66c0.16,0,0.32,0.17,0.47,0.17c0.81,0.23,1.92-0.07,2.95-0.06
	c0.21,0,0.45-0.07,0.66-0.07c-1.75,3.14,3.95,3.6,4.32,5.73c0.17,0.97-0.54,2.31-1.87,2.49c-0.74,0.12-1.44,0.09-2.18,0
	c-2.8-0.21-4.37-1.64-4.82-4.2C211.9,218.92,211.88,218.42,211.99,217.88z"/>
<path class="st3" d="M70.03,220.37c1.58-0.08,2.75-0.56,3.73-1.24c0.24,0.91,0.5,1.7,1.51,1.93c1.21,0.26,2.68-0.01,3.93,0.09
	c1.56,0.17,1.75,1.84,1.4,3.11c-0.52,0.86-2.6,1.86-4.51,2.18c-0.58,0.08-1,0.11-1.55,0C71.61,225.83,70.98,222.94,70.03,220.37z"/>
<path class="st1" d="M95.84,86.49c0.45-0.58,0.97-1.1,1.55-1.55C96.94,85.52,96.42,86.03,95.84,86.49z"/>
<path class="st6" d="M58.99,128.32c0.37-3.21,2.18-4.97,5.29-5.44c4.91,0.57,9.1,2.37,13.84,3.73c12.69,3.64,25.65,6.52,36.54,11.51
	c2.89,2.24,5.55,4.72,9.33,6.06c0.25,0.37,0.34,0.9,0.47,1.4c0.08,0.5,0.07,1,0,1.55c-0.07,1.58-0.91,2.42-2.02,2.95
	c-0.86,0.41-2.23,0.17-2.18,1.4c0.05-2-3.75-3.7-6.06-4.51c-7.03-2.47-16.09-2.11-23.79-3.89c-10.47-2.42-19.67-6.6-29.08-8.09
	c-1.19-1.19-2.32-2.45-2.33-4.82C58.95,129.5,58.91,128.99,58.99,128.32z"/>
<path class="st2" d="M110.3,186c2.82,5.73,0.57,16.52-3.73,20.37c-1.53,1.37-3.97,2.43-6.69,1.55c-0.15-0.04-0.05-0.03-0.16-0.16
	c-0.21-6.32-4.24-8.82-7.46-12.13c-0.82-0.95-1.7-1.83-2.64-2.64c-1.53-1.99-3.28-3.77-4.98-5.6c-1.8-1.93-3.67-3.8-5.6-5.6
	c-2.23-2.12-4.42-4.29-6.69-6.38c-1.18-1.31-2.42-2.55-3.73-3.73c-0.6-0.7-1.18-1.41-2.02-1.87C82.47,173.92,96.92,179.42,110.3,186
	z"/>
<path class="st6" d="M113.41,160.35c1.8,1.82,3.2,4.06,3.27,7.62c0.06,0.8,0.05,1.51,0,2.33c-0.5,6.86-3.01,11.71-6.38,15.7
	c-13.38-6.58-27.83-12.09-43.69-16.17c-0.1,0-0.21,0-0.31,0c-0.08,3.63-1.29,7.27-0.62,11.04c0.46,2.57,1.91,4.95,3.11,7.46
	c3.39,7.08,5.27,15.53,9.02,22.24c-0.4,3.8-1.99,6.4-4.04,8.55c-0.98,0.68-2.15,1.16-3.73,1.24c-5.02,0.1-7.19-2.66-8.55-6.22
	c-3.14-13.15-0.32-29.69,2.8-41.21c0.29-1.06,0.95-2.03,1.4-2.95c-2.13-0.66-4.58-1.02-7-1.4c-6.11-1.86-9.67-16.86-1.87-19.59
	c4.98-0.29,8.59,2.37,12.13,3.27c3.53,0.89,7.3,1.28,10.88,2.02c7.12,1.47,14.11,3.27,21.3,4.51
	C104.86,159.44,109.96,159.65,113.41,160.35z"/>
<path class="st6" d="M129.58,72.8c-6.1,0.23-10.66,1.99-12.75,6.22c0.22,2.65,0.78,5.45,1.24,8.24c2.15,12.84,5.63,26.05,7.62,38.87
	c0.83,5.34,0.48,11.05,3.27,15.55c3.45,2.39,6.07-1.74,7-4.35c0.34-0.9,0.63-1.85,0.62-3.11c0-0.98,0-1.97,0-2.95
	c-0.02-2.88-0.63-5.17-0.62-8.09c-0.35-0.22-0.06-1.08-0.16-1.55c0-1.14,0-2.28,0-3.42c0-0.83,0-1.66,0-2.49
	c-0.36-1.61-0.05-3.89-0.16-5.75c0-0.41,0-0.83,0-1.24c0.1-1.45-0.21-3.32,0.16-4.51c0-0.47,0-0.93,0-1.4c0-0.52,0-1.04,0-1.56
	c0.4-4.91,0.47-8.95,1.55-12.75c1.05-3.65,3.22-6.82,3.11-11.2c-1.06-2.99-3.86-4.42-7.81-4.51
	C132.65,72.8,130.34,72.77,129.58,72.8z"/>
<path class="st7" d="M169.7,174.34c-10.58,2.54-13.4-12.08-8.4-18.04c5.7-4.79,12.22-8.88,19.13-12.6
	c6.82-3.66,15.28-6.36,23.79-8.09c4.81,2.55,6.58,8.15,7,15.08c0,0.67,0.05,1.2,0.08,1.99c-12.77,4.66-24.94,11.69-36.31,18.53
	C173.2,172.31,171.14,173.79,169.7,174.34z"/>
<path class="st1" d="M193.49,108.41c0.3-0.42,1.55,0.09,1.87-0.31c0,0.05,0,0.1,0,0.16C194.98,108.55,194.11,108.35,193.49,108.41z"
	/>
<path class="st7" d="M185.4,199.22c0.43-4.66,2.84-9.41,4.98-13.22c4.61-8.21,9.28-14.73,14.31-22.08c2.43-3.55,4.14-8.06,8.4-9.8
	c0.81-0.32,1.54-0.28,2.49-0.16c0.17,1.12,0.55,2.04,0.47,3.42c0,0.78,0,1.56,0,2.33c-1.89,12.83-4.58,25.98-7.31,38.41
	c-0.86,3.93-1.55,6.56-3.58,9.33c-0.76,1.36-1.87,2.38-3.27,3.11c-1.2,0.36-2.4,0.71-4.04,0.62c-3.5,0.07-5.67-1.17-8.24-2.02
	c-1.27-0.91-2.55-1.81-3.27-3.27c-0.68-1.13-1.06-2.5-1.09-3.89c0-0.57,0-1.14,0-1.71C185.25,199.9,185.19,199.42,185.4,199.22z"/>
<path class="st1" d="M68.63,171.7c1.31,1.18,2.55,2.42,3.73,3.73C71.05,174.25,69.81,173.01,68.63,171.7z"/>
<path class="st8" d="M72.36,175.43c2.27,2.09,4.45,4.25,6.69,6.38c1.8,1.93,3.67,3.8,5.6,5.6c1.69,1.83,3.44,3.61,4.98,5.6
	c0.82,0.95,1.7,1.83,2.64,2.64c3.22,3.31,7.25,5.81,7.46,12.13c-0.25,5.97-4.84,8.8-10.73,9.64c-0.76,0.09-1.29,0.07-2.02,0
	c-5.08-0.26-7.02-3.65-9.17-6.84c-3.75-6.7-5.63-15.15-9.02-22.24c-1.2-2.51-2.65-4.9-3.11-7.46c-0.67-3.77,0.54-7.41,0.62-11.04
	c0.1,0,0.21,0,0.31,0c0.84,0.45,1.42,1.17,2.02,1.87C69.81,173.01,71.05,174.25,72.36,175.43z"/>
<path class="st1" d="M79.05,181.81c1.93,1.8,3.8,3.67,5.6,5.6C82.71,185.6,80.85,183.74,79.05,181.81z"/>
<path class="st1" d="M89.62,193c0.95,0.82,1.83,1.7,2.64,2.64C91.32,194.83,90.44,193.95,89.62,193z"/>
<path class="st2" d="M97.39,84.93c3.8-3.3,8.49-5.71,15.39-5.91c0.73,0,1.45,0,2.18,0c0.62,0,1.24,0,1.87,0
	c0.22,2.65,0.78,5.45,1.24,8.24c2.15,12.84,5.63,26.05,7.62,38.87c0.83,5.34,0.48,11.05,3.27,15.55c-0.63,0.99-1.44,2.58-3.11,2.02
	c-6.63-12.66-14.08-25.12-22.24-36.7c-3.66-5.2-6.67-10.78-11.66-14.46c0.84-2.47,2.38-4.25,3.89-6.06
	C96.42,86.03,96.94,85.52,97.39,84.93z"/>
<path class="st8" d="M140.47,77.31c4.22-2.43,13.82-4.98,20.84-2.49c2.12,0.75,4.23,2.03,6.22,3.27c2.53,1.56,4.53,4.44,3.11,7.15
	c-4.16,3.14-6.15,9.75-7.93,15.7c-1.42,4.75-3.07,9.41-4.66,13.84c-3.45,9.56-5.75,19.21-9.33,27.68c-2.36,1.42-5.86,2.13-8.4,1.09
	c-2.58-1.05-3.07-3.81-4.35-6.22c0.34-0.9,0.63-1.85,0.62-3.11c0.26-0.63,0.26-2.33,0-2.95c-0.02-2.88-0.63-5.17-0.62-8.09
	c0-0.52,0-1.04,0-1.55c-0.1-1.09,0.21-2.59-0.16-3.42c0-0.83,0-1.66,0-2.49c-0.1-1.87,0.21-4.15-0.16-5.75c0-0.41,0-0.83,0-1.24
	c0.36-1.19,0.05-3.06,0.16-4.51c0-0.47,0-0.93,0-1.4c0.26-0.17,0.26-1.39,0-1.56c0.4-4.91,0.47-8.95,1.55-12.75
	C138.4,84.86,140.58,81.69,140.47,77.31z"/>
<path class="st8" d="M77.02,108.41c13.87,8.57,25.97,18.92,37.63,29.7c-10.89-4.99-23.85-7.87-36.54-11.51
	c-4.74-1.36-8.93-3.16-13.84-3.73c-1.27-8.02,1.97-14.04,8.86-14.93c0.64-0.08,0.97-0.06,1.71,0
	C75.72,108.02,76.27,108.28,77.02,108.41z"/>
<path class="st8" d="M195.36,108.26c7.73,0.76,8.46,12.75,3.27,17.26c-0.14,0.12-0.51,0.14-0.31,0.47
	c-15.56,5.23-29.95,11.62-41.52,20.84c-0.58,0.45-1.1,0.97-1.55,1.56c-0.32,0.72-0.88,1.2-1.24,1.87c-1.43-0.44-2.05-1.68-2.33-3.27
	c0.19-5.75,3.71-9.69,6.69-13.37c3.04-3.75,6.1-7.44,9.02-11.04c5.96-7.34,13.45-13.84,26.12-14.15
	C194.11,108.35,194.98,108.55,195.36,108.26z"/>
<path class="st2" d="M151.66,146.97c-2.22-0.19-3.33-2.24-2.95-4.51c3.58-8.47,5.88-18.12,9.33-27.68c1.6-4.42,3.24-9.09,4.66-13.84
	c1.78-5.96,3.77-12.56,7.93-15.7c2.64-1.66,5.57-3.04,9.64-3.27c0.98,0,1.97,0,2.95,0c4.15,0.21,6.79,2.25,9.64,4.35
	c1.65,1.21,3.54,2.84,4.2,4.2c2.64,5.44,0.17,12.79-1.71,17.57c-0.32,0.41-1.56-0.11-1.87,0.31c-12.68,0.31-20.17,6.81-26.12,14.15
	c-2.92,3.6-5.98,7.29-9.02,11.04C155.37,137.28,151.85,141.23,151.66,146.97z"/>
<path class="st2" d="M29.75,193.16c0.29,3.95,1.71,8.99,4.66,11.35c2.68,2.14,8.12,1.79,9.33-1.4c0.89-12.9,5.93-21.64,10.26-31.1
	c-5.28-2.66-14.1-1.66-17.42,2.02c-0.68,0.67-0.97,0.94-1.56,1.56c-2.77,3.56-4.92,7.72-5.29,13.68
	C29.75,189.27,29.59,191.92,29.75,193.16z"/>
<path class="st3" d="M172.34,200.78c0.76,0.78,2.65,0.97,3.58,1.09c-0.4,3.72,7.16,4.18,3.11,7.46c-0.34,0.25-1.23,0.22-1.87,0.16
	c-3.46-0.4-5.05-1.15-5.6-4.04c-0.07-0.58-0.09-1.02,0-1.56C171.73,202.76,172,201.72,172.34,200.78z"/>
<path class="st2" d="M175.92,201.86c-0.93-0.12-2.82-0.31-3.58-1.09c-3.82-3.64-6.2-10.05-6.53-16.17c-0.05-0.68-0.06-1.09,0-1.71
	c0.03-1.92,0.48-3.37,1.24-4.82c0.74-1.4,1.86-2.03,2.8-3.27c0.08-0.1,0.72-0.59-0.16-0.47c1.44-0.55,3.5-2.03,5.29-3.11
	c11.37-6.84,23.54-13.87,36.31-18.53c0,0.12,0,0.16,0,0.25c-0.02,1,0.87,1.12,1.79,1.18c-4.26,1.74-5.97,6.24-8.4,9.8
	c-5.03,7.35-9.7,13.87-14.31,22.08c-2.13,3.8-4.55,8.56-4.98,13.22C183.2,201.06,179.59,201.5,175.92,201.86z"/>
<path class="st8" d="M205.15,207.46c2.03-2.77,2.71-5.4,3.58-9.33c2.72-12.43,5.42-25.57,7.31-38.41c0-0.51-0.04-1.62,0-2.33
	c0.09-1.38-0.29-2.3-0.47-3.42c0-0.05,0-0.1,0-0.16c0.51-0.11,0.99-0.25,1.56-0.31c0.67-0.06,1.33-0.06,2.02,0
	c2.13,0.31,4.34,0.53,5.44,1.87c-0.4,0.17-0.46,0.19-0.93,0.31c-2.2,11.87-1.78,26.57-2.33,39.65c0,1.02,0,2.84,0,3.89
	c-0.03,3.71,0.63,6.73,1.55,9.49c0.21,2.54-0.42,4.19-1.97,5.03c-0.63,0.3-1.09,0.63-1.76,0.88c-0.94,0.46-2.24,0.56-3.27,0.93
	c-1.03-0.01-2.15,0.07-2.95-0.16C208.82,214.26,205.65,212.2,205.15,207.46z"/>
<path class="st3" d="M55.57,215.24c0.21,0,0.41,0,0.62,0c-0.45,0.74-0.83,0.67-1.24,2.33c-0.1,0.34-0.22,1.1,0,1.55
	c1.19,2.17,7.49,1.53,4.82,5.6c-2.35,2.41-9.07,0.38-8.86-4.35c0-1.09,0-2.18,0-3.27c0.03-1.04-0.03-1.29,0.31-2.02
	c0.44,0.19,1.07,0.17,1.71,0.16"/>
<path class="st7" d="M77.02,108.41c-0.87-0.72-0.55-2.73-0.16-4.2c1.08-3.97,5.33-8.99,9.33-10.73c1.61-0.7,4.37-1.18,5.75-0.93
	c4.99,3.68,8,9.26,11.66,14.46c8.16,11.57,15.6,24.04,22.24,36.7c-0.03,0.13,0,0.17-0.16,0.31c-0.44,0.19-1.07,0.17-1.71,0.16
	c-3.78-1.35-6.44-3.83-9.33-6.06C102.99,127.33,90.9,116.98,77.02,108.41z"/>
<path class="st7" d="M56.81,149c-0.97-0.95-2.11-2.86-2.18-4.98c-0.11-3.23,2.35-8.46,4.82-9.02c0.77-0.18,1.28-0.06,1.87,0
	c9.4,1.49,18.61,5.67,29.08,8.09c7.7,1.78,16.76,1.41,23.79,3.89c2.31,0.81,6.12,2.51,6.06,4.51c0.6,5.84-2.6,7.87-6.84,8.86
	c-3.45-0.69-8.55-0.91-12.28-1.55c-7.19-1.24-14.18-3.04-21.3-4.51c-3.59-0.74-7.36-1.13-10.88-2.02
	C65.4,151.37,61.79,148.71,56.81,149z"/>
<path class="st7" d="M238.89,175.9c-0.16,3.9-1.76,9.61-5.13,9.64c-3.82,0.03-4.99-6.75-4.82-10.88c0.18-4.32,1.7-10.38,5.29-10.42
	c2.98-0.03,4.62,5.08,4.66,8.55C238.96,173.92,238.96,174.66,238.89,175.9z"/>
<path class="st7" d="M246.36,175.28c-0.03-3.92,1.64-10.36,5.13-10.42c4.16-0.07,5.11,7.47,4.82,11.82
	c-0.28,4.11-1.9,9.49-5.29,9.49c-3.17,0-4.7-5.53-4.66-9.33C246.34,176.2,246.34,175.87,246.36,175.28z"/>
<path class="st7" d="M58.68,168.59c2.41,0.38,4.86,0.73,7,1.4c-0.45,0.92-1.11,1.89-1.4,2.95c-3.12,11.52-5.94,28.05-2.8,41.21
	c-1.48,0.65-3.28,0.97-5.29,1.09c-0.21,0-0.41,0-0.62,0c-0.88,0-1.76,0-2.64,0c-0.64,0.02-1.27,0.03-1.71-0.16
	c-5.5-0.98-7.4-5.56-7.46-11.97c0.89-12.9,5.93-21.64,10.26-31.1C55.43,170.73,56.74,169.35,58.68,168.59z"/>
<path class="st6" d="M198.33,125.99c3.03-0.36,7.04-0.54,7.93,2.02c0.89,2.57-0.79,5.83-2.02,7.62c-8.52,1.73-16.97,4.42-23.79,8.09
	c-6.91,3.71-13.43,7.81-19.13,12.6c-4.54,1.87-9.69-1.54-7.31-6.06c0.49-0.87,0.7-1.09,1.24-1.87c0.58-0.76,0.77-0.94,1.55-1.56
	C168.38,137.61,182.77,131.22,198.33,125.99z"/>
<path class="st3" d="M197.84,211.19c1.64,0.09,2.85-0.26,4.04-0.62c-1.02,3.11,4.26,3.3,5.13,4.2c2.49,2.54-2.83,3.97-4.98,3.73
	C198.78,218.14,197.75,214.85,197.84,211.19z"/>
</svg>
